<svg data-v-423bf9ae="" xmlns="http://www.w3.org/2000/svg" viewBox="0 0 387 90" class="iconLeft"><!----><!----><!----><g data-v-423bf9ae="" id="863bd81e-21b4-4248-a4bb-e7980196a774" fill="white" transform="matrix(4.979253427292024,0,0,4.979253427292024,105.81742615986121,-3.7717838954077365)"><path d="M4.12 15.81C5.47 15.82 6.83 15.37 7.95 14.45C10.50 12.35 10.88 8.55 8.76 5.99C7.59 4.55 5.85 3.79 4.12 3.79L1.12 3.79C0.97 3.79 0.84 3.92 0.84 4.06L0.84 15.47C0.84 15.67 0.97 15.81 1.12 15.81ZM7.08 7.38C8.43 9.00 8.19 11.42 6.55 12.75C5.85 13.34 4.98 13.64 4.12 13.62L3.02 13.62L3.02 5.98L4.12 5.98C5.22 5.98 6.33 6.45 7.08 7.38ZM19.74 15.54C19.74 15.69 19.61 15.82 19.47 15.82L11.82 15.82C11.66 15.82 11.54 15.69 11.54 15.54L11.54 4.06C11.54 3.91 11.66 3.78 11.82 3.78L19.19 3.78C19.35 3.78 19.47 3.91 19.47 4.06L19.47 5.70C19.47 5.85 19.35 5.96 19.19 5.96L13.72 5.96L13.72 8.71L18.91 8.71C19.07 8.71 19.19 8.82 19.19 8.97L19.19 10.61C19.19 10.77 19.07 10.89 18.91 10.89L13.72 10.89L13.72 13.62L19.47 13.62C19.61 13.62 19.74 13.75 19.74 13.90ZM27.99 15.54C27.99 15.69 27.83 15.81 27.64 15.81L21.70 15.81C21.55 15.81 21.42 15.69 21.42 15.54L21.42 4.12C21.42 3.93 21.55 3.78 21.70 3.78L23.34 3.78C23.49 3.78 23.60 3.93 23.60 4.12L23.60 13.62L27.64 13.62C27.83 13.62 27.99 13.75 27.99 13.90ZM37.59 5.67C37.59 5.82 37.46 5.95 37.32 5.95L32.82 5.95L35.10 8.69L35.88 8.69C36.08 8.69 36.22 8.81 36.22 8.96L36.22 10.60C36.22 10.75 36.08 10.88 35.88 10.88L31.57 10.88L31.57 15.51C31.57 15.67 31.46 15.81 31.30 15.81L29.67 15.81C29.51 15.81 29.39 15.67 29.39 15.51L29.39 8.69L32.24 8.69L29.39 5.25L29.39 4.06C29.39 3.89 29.51 3.77 29.67 3.77L37.32 3.77C37.46 3.77 37.59 3.89 37.59 4.06ZM43.37 5.95L43.37 13.61L45.21 13.61C45.40 13.61 45.56 13.73 45.56 13.89L45.56 15.53C45.56 15.68 45.40 15.81 45.21 15.81L39.27 15.81C39.12 15.81 38.99 15.68 38.99 15.53L38.99 13.89C38.99 13.73 39.12 13.61 39.27 13.61L41.17 13.61L41.17 5.95L39.27 5.95C39.12 5.95 38.99 5.84 38.99 5.68L38.99 4.05C38.99 3.89 39.12 3.77 39.27 3.77L45.21 3.77C45.40 3.77 45.56 3.89 45.56 4.05L45.56 5.68C45.56 5.84 45.40 5.95 45.21 5.95ZM47.24 3.79L51.81 8.37L56.39 3.79L56.39 15.54C56.39 15.69 56.28 15.82 56.13 15.82L54.52 15.82C54.36 15.82 54.24 15.69 54.24 15.54L54.24 8.99L51.81 11.41L49.39 8.99L49.39 15.54C49.39 15.69 49.28 15.82 49.13 15.82L47.50 15.82C47.36 15.82 47.24 15.69 47.24 15.54Z"></path></g><!----><g data-v-423bf9ae="" id="f977d829-1de9-4b28-a464-51e2143ccf1c" transform="matrix(2.8125,0,0,2.8125,0,0)" stroke="none" fill="white"><path d="M11.579 32H32L21.789 14.314z"></path><circle cx="8.683" cy="8.683" r="8.683"></circle></g><!----></svg>